<svg width="128" height="128" viewBox="0 0 128 128" xmlns="http://www.w3.org/2000/svg">
  <defs>
    <linearGradient id="grad1" x1="0%" y1="0%" x2="100%" y2="100%">
      <stop offset="0%" style="stop-color:#3b82f6;stop-opacity:1" />
      <stop offset="100%" style="stop-color:#1d4ed8;stop-opacity:1" />
    </linearGradient>
  </defs>
  
  <!-- Background circle -->
  <circle cx="64" cy="64" r="60" fill="url(#grad1)" stroke="#1e40af" stroke-width="4"/>
  
  <!-- Graduation cap -->
  <path d="M20 50 L64 25 L108 50 L108 70 L20 70 Z" fill="white" opacity="0.9"/>
  <rect x="30" y="70" width="68" height="8" fill="white" opacity="0.9"/>
  
  <!-- Book/Page -->
  <rect x="35" y="45" width="58" height="20" fill="#fbbf24" rx="2"/>
  <rect x="37" y="47" width="54" height="16" fill="white" rx="1"/>
  
  <!-- Text lines -->
  <rect x="40" y="50" width="20" height="2" fill="#6b7280"/>
  <rect x="40" y="54" width="16" height="2" fill="#6b7280"/>
  <rect x="40" y="58" width="18" height="2" fill="#6b7280"/>
  
  <!-- Reply arrow -->
  <path d="M85 55 L95 55 L90 50 L85 55 M85 55 L95 55 L90 60 L85 55" stroke="#3b82f6" stroke-width="2" fill="none"/>
  
  <!-- Link icon -->
  <circle cx="100" cy="35" r="8" fill="#10b981"/>
  <path d="M96 31 L104 39 M104 31 L96 39" stroke="white" stroke-width="1.5"/>
  
  <!-- Note icon -->
  <rect x="25" y="80" width="12" height="16" fill="#f59e0b" rx="1"/>
  <rect x="27" y="82" width="8" height="2" fill="white"/>
  <rect x="27" y="86" width="6" height="2" fill="white"/>
  <rect x="27" y="90" width="8" height="2" fill="white"/>
  
  <!-- Settings gear -->
  <circle cx="100" cy="100" r="12" fill="#6b7280"/>
  <circle cx="100" cy="100" r="6" fill="white"/>
  <path d="M100 88 L100 92 M100 108 L100 112 M88 100 L92 100 M108 100 L112 100" stroke="white" stroke-width="2" stroke-linecap="round"/>
</svg>